HIERARCHY
ROOT Hips
{
  OFFSET 0.0000 0.0000 0.0000
  CHANNELS 6 Xposition Yposition Zposition Zrotation Xrotation Yrotation
  JOINT LeftHip
  {
    OFFSET 5.5000 0.0000 0.0000
    CHANNELS 3 Zrotation Xrotation Yrotation
    JOINT LeftKnee
    {
      OFFSET 0.0000 -17.5000 0.0000
      CHANNELS 3 Zrotation Xrotation Yrotation
      JOINT LeftAnkle
      {
        OFFSET 0.0000 -17.0000 0.0000
        CHANNELS 3 Zrotation Xrotation Yrotation
        End Site
        {
            OFFSET -0.0000 -4.7000 -2.0000
        }
      }
    }
  }
  JOINT RightHip
  {
    OFFSET -5.5000 0.0000 0.0000
    CHANNELS 3 Zrotation Xrotation Yrotation
    JOINT RightKnee
    {
      OFFSET 0.0000 -17.5000 0.0000
      CHANNELS 3 Zrotation Xrotation Yrotation
      JOINT RightAnkle
      {
        OFFSET 0.0000 -17.0000 0.0000
        CHANNELS 3 Zrotation Xrotation Yrotation
        End Site
        {
            OFFSET 0.0000 -4.7000 -2.0000
        }
      }
    }
  }
  JOINT Chest
  {
    OFFSET 0.0000 3.0000 -1.0000
    CHANNELS 3 Zrotation Xrotation Yrotation
    JOINT LeftCollar
    {
      OFFSET 0.0000 18.0000 1.0000
      CHANNELS 3 Zrotation Xrotation Yrotation
      JOINT LeftShoulder
      {
        OFFSET 6.5000 0.0000 0.0000
        CHANNELS 3 Zrotation Xrotation Yrotation
        JOINT LeftElbow
        {
          OFFSET 0.0000 -11.0000 0.0000
          CHANNELS 3 Zrotation Xrotation Yrotation
          JOINT LeftWrist
          {
            OFFSET -0.0000 -10.5000 0.0000
            CHANNELS 3 Zrotation Xrotation Yrotation
            End Site
            {
                OFFSET 0.0000 -6.0000 0.0000
            }
          }
        }
      }
    }
    JOINT RightCollar
    {
      OFFSET 0.0000 18.0000 1.0000
      CHANNELS 3 Zrotation Xrotation Yrotation
      JOINT RightShoulder
      {
        OFFSET -6.5000 0.0000 0.0000
        CHANNELS 3 Zrotation Xrotation Yrotation
        JOINT RightElbow
        {
          OFFSET 0.0000 -11.0000 0.0000
          CHANNELS 3 Zrotation Xrotation Yrotation
          JOINT RightWrist
          {
            OFFSET -0.0000 -10.5000 0.0000
            CHANNELS 3 Zrotation Xrotation Yrotation
            End Site
            {
                OFFSET 0.0000 -6.0000 0.0000
            }
          }
        }
      }
    }
    JOINT Neck
    {
      OFFSET 0.0000 18.0000 1.0000
      CHANNELS 3 Zrotation Xrotation Yrotation
      JOINT Head
      {
        OFFSET 0.0000 3.0000 0.0000
        CHANNELS 3 Zrotation Xrotation Yrotation
        End Site
        {
            OFFSET 0.0000 7.0000 0.0000
        }
      }
    }
  }
}
MOTION
Frames:	36
Frame Time:	0.033333
-0.5519 39.3992 0.3322 0.29 -0.55 -11.05 -0.74 -1.92 -0.21 0.00 9.65 0.01 0.34 -7.25 -0.92 1.67 -1.65 -0.48 -0.00 9.34 0.01 -2.09 -7.23 0.09 0.16 3.94 -0.23 0.00 0.00 0.00 5.76 -0.39 -2.00 0.00 -12.02 0.73 -6.53 -0.13 1.84 0.00 0.00 0.00 -6.61 0.16 -0.32 -0.00 -13.37 -0.81 5.56 1.11 -0.07 0.00 0.00 0.00 0.55 -2.66 -1.66 
-0.5564 39.3978 0.3416 0.29 -0.57 -11.05 -0.74 -1.90 -0.21 0.00 9.69 0.01 0.34 -7.29 -0.92 1.67 -1.63 -0.48 0.00 9.39 0.01 -2.10 -7.27 0.08 0.16 3.93 -0.23 0.00 0.00 0.00 5.73 -0.39 -2.00 0.00 -12.02 0.73 -6.54 -0.11 1.85 0.00 0.00 0.00 -6.65 0.21 -0.32 -0.00 -13.38 -0.81 5.49 1.12 -0.07 0.00 0.00 0.00 0.55 -2.59 -1.67 
-0.5706 39.3954 0.3717 0.30 -0.60 -11.04 -0.73 -1.82 -0.20 0.00 9.70 0.01 0.32 -7.34 -0.93 1.67 -1.58 -0.48 -0.00 9.45 0.00 -2.11 -7.36 0.07 0.17 3.95 -0.23 0.00 0.00 0.00 5.72 -0.39 -2.00 0.00 -12.04 0.73 -6.56 -0.12 1.85 0.00 0.00 0.00 -6.65 0.24 -0.32 0.00 -13.41 -0.81 5.43 1.14 -0.06 0.00 0.00 0.00 0.55 -2.44 -1.67 
-0.5922 39.3923 0.4177 0.30 -0.63 -11.04 -0.72 -1.71 -0.20 0.00 9.70 0.01 0.30 -7.42 -0.94 1.68 -1.50 -0.48 0.00 9.52 0.00 -2.13 -7.47 0.06 0.18 3.99 -0.23 0.00 0.00 0.00 5.72 -0.31 -2.01 0.00 -12.03 0.73 -6.58 -0.19 1.85 0.00 0.00 0.00 -6.65 0.33 -0.31 -0.00 -13.42 -0.81 5.39 1.09 -0.06 0.00 0.00 0.00 0.54 -2.29 -1.67 
-0.6296 39.3890 0.4564 0.31 -0.68 -11.03 -0.69 -1.59 -0.20 -0.00 9.69 0.01 0.25 -7.49 -0.95 1.71 -1.41 -0.48 0.00 9.60 0.00 -2.18 -7.59 0.04 0.19 4.03 -0.23 0.00 0.00 0.00 5.72 -0.52 -1.99 0.00 -12.16 0.74 -6.60 0.00 1.86 0.00 0.00 0.00 -6.65 0.13 -0.33 -0.00 -13.64 -0.83 5.35 1.33 -0.06 0.00 0.00 0.00 0.63 -2.17 -1.67 
-0.6250 39.3902 0.4216 0.31 -0.72 -11.03 -0.70 -1.62 -0.20 -0.00 9.70 0.01 0.25 -7.43 -0.95 1.70 -1.44 -0.48 0.00 9.63 -0.00 -2.19 -7.55 0.04 0.19 4.05 -0.23 0.00 0.00 0.00 5.72 -0.64 -1.98 -0.00 -12.15 0.74 -6.66 -0.04 1.86 0.00 0.00 0.00 -6.65 0.01 -0.35 -0.00 -13.69 -0.84 5.34 1.38 -0.06 0.00 0.00 0.00 0.67 -2.16 -1.67 
-0.6138 39.3922 0.3700 0.31 -0.75 -11.02 -0.71 -1.68 -0.20 -0.00 9.70 0.01 0.25 -7.34 -0.96 1.69 -1.51 -0.48 -0.00 9.65 -0.00 -2.18 -7.47 0.04 0.19 4.08 -0.23 0.00 0.00 0.00 5.59 -0.71 -1.97 0.00 -12.11 0.74 -6.63 -0.12 1.85 0.00 0.00 0.00 -6.78 -0.06 -0.35 0.00 -13.68 -0.83 5.40 1.34 -0.08 0.00 0.00 0.00 0.68 -2.17 -1.67 
-0.6036 39.3940 0.3254 0.32 -0.77 -11.02 -0.72 -1.75 -0.21 -0.00 9.71 0.01 0.25 -7.27 -0.96 1.69 -1.58 -0.48 -0.00 9.66 -0.00 -2.18 -7.40 0.04 0.18 4.10 -0.23 0.00 0.00 0.00 5.56 -0.75 -1.96 0.00 -12.07 0.74 -6.71 -0.19 1.85 0.00 0.00 0.00 -6.82 0.02 -0.35 0.00 -13.60 -0.83 5.40 1.21 -0.07 0.00 0.00 0.00 0.78 -2.18 -1.66 
-0.5988 39.3948 0.3044 0.32 -0.78 -11.02 -0.72 -1.77 -0.21 -0.00 9.71 0.01 0.25 -7.23 -0.96 1.68 -1.61 -0.48 -0.00 9.67 -0.00 -2.18 -7.37 0.04 0.18 4.15 -0.23 0.00 0.00 0.00 5.55 -0.68 -2.10 0.00 -12.02 0.67 -6.76 -0.34 1.95 0.00 0.00 0.00 -6.82 0.14 -0.34 0.00 -13.57 -0.83 5.39 1.08 -0.06 0.00 0.00 0.00 0.82 -2.08 -1.66 
-0.5987 39.3942 0.3041 0.32 -0.79 -11.02 -0.72 -1.79 -0.21 0.00 9.75 0.01 0.25 -7.25 -0.96 1.68 -1.61 -0.48 0.00 9.68 -0.00 -2.18 -7.37 0.04 0.18 4.17 -0.23 0.00 0.00 0.00 5.55 -0.67 -2.15 0.00 -12.01 0.67 -6.81 -0.37 1.96 0.00 0.00 0.00 -6.82 0.17 -0.34 -0.00 -13.57 -0.83 5.37 1.09 -0.06 0.00 0.00 0.00 0.84 -2.16 -1.66 
-0.5986 39.3940 0.3039 0.32 -0.79 -11.02 -0.72 -1.79 -0.21 -0.00 9.77 0.01 0.25 -7.26 -0.96 1.68 -1.61 -0.48 0.00 9.68 -0.00 -2.18 -7.37 0.04 0.18 4.19 -0.23 0.00 0.00 0.00 5.56 -0.68 -2.18 -0.00 -12.01 0.69 -6.84 -0.36 1.94 0.00 0.00 0.00 -6.82 0.17 -0.34 0.00 -13.59 -0.83 5.36 1.12 -0.05 0.00 0.00 0.00 0.85 -2.21 -1.66 
-0.5986 39.3939 0.3039 0.32 -0.79 -11.02 -0.72 -1.80 -0.21 0.00 9.78 0.01 0.25 -7.26 -0.96 1.68 -1.60 -0.48 -0.00 9.68 -0.00 -2.18 -7.38 0.04 0.18 4.19 -0.23 0.00 0.00 0.00 5.56 -0.69 -2.19 -0.00 -12.01 0.70 -6.86 -0.36 1.92 0.00 0.00 0.00 -6.81 0.16 -0.35 0.00 -13.59 -0.82 5.35 1.14 -0.05 0.00 0.00 0.00 0.85 -2.24 -1.66 
-0.5866 39.3964 0.2423 0.32 -0.79 -11.02 -0.72 -1.90 -0.21 -0.00 9.79 0.01 0.25 -7.17 -0.96 1.68 -1.70 -0.48 0.00 9.67 -0.00 -2.18 -7.26 0.04 0.18 4.20 -0.24 0.00 0.00 0.00 5.56 -0.70 -2.20 0.00 -12.00 0.71 -6.88 -0.35 1.90 0.00 0.00 0.00 -6.81 0.16 -0.35 -0.00 -13.59 -0.82 5.40 1.16 -0.05 0.00 0.00 0.00 0.86 -2.25 -1.66 
-0.5756 39.3985 0.1860 0.32 -0.80 -11.02 -0.72 -2.00 -0.21 0.00 9.79 0.01 0.25 -7.08 -0.96 1.68 -1.80 -0.48 -0.00 9.68 -0.00 -2.18 -7.17 0.04 0.18 4.20 -0.24 0.00 0.00 0.00 5.56 -0.70 -2.20 0.00 -12.00 0.72 -6.89 -0.35 1.89 0.00 0.00 0.00 -6.81 0.16 -0.35 -0.00 -13.59 -0.82 5.44 1.16 -0.05 0.00 0.00 0.00 0.86 -2.26 -1.66 
-0.5786 39.3983 0.1867 0.32 -0.80 -11.02 -0.72 -1.99 -0.21 0.00 9.79 0.01 0.24 -7.08 -0.96 1.69 -1.80 -0.49 -0.00 9.69 -0.00 -2.18 -7.18 0.04 0.18 4.20 -0.24 0.00 0.00 0.00 5.56 -0.70 -2.20 0.00 -12.00 0.72 -6.89 -0.35 1.89 0.00 0.00 0.00 -6.81 0.15 -0.35 -0.00 -13.59 -0.82 5.46 1.17 -0.06 0.00 0.00 0.00 0.86 -2.26 -1.66 
-0.5815 39.3981 0.1880 0.32 -0.80 -11.02 -0.71 -1.98 -0.21 -0.00 9.79 0.01 0.24 -7.08 -0.96 1.69 -1.80 -0.49 -0.00 9.69 -0.00 -2.19 -7.18 0.04 0.21 4.20 -0.23 0.00 0.00 0.00 5.68 -0.70 -2.19 0.00 -11.99 0.72 -6.98 -0.35 1.89 0.00 0.00 0.00 -6.70 0.15 -0.33 0.00 -13.67 -0.83 5.39 1.20 -0.05 0.00 0.00 0.00 0.97 -2.26 -1.64 
-0.5829 39.3980 0.1888 0.32 -0.80 -11.02 -0.71 -1.98 -0.21 -0.00 9.79 0.01 0.24 -7.09 -0.95 1.69 -1.80 -0.49 0.00 9.69 -0.00 -2.19 -7.19 0.04 0.22 4.20 -0.23 0.00 0.00 0.00 5.69 -0.71 -2.19 0.00 -11.99 0.73 -6.97 -0.35 1.89 0.00 0.00 0.00 -6.69 0.15 -0.33 -0.00 -13.71 -0.83 5.41 1.20 -0.05 0.00 0.00 0.00 0.98 -2.26 -1.64 
-0.5780 39.3981 0.1894 0.31 -0.80 -11.03 -0.71 -1.97 -0.22 0.00 9.79 0.01 0.25 -7.09 -0.93 1.69 -1.80 -0.49 0.00 9.69 -0.01 -2.18 -7.19 0.07 0.22 4.20 -0.24 0.00 0.00 0.00 5.68 -0.71 -2.19 -0.00 -11.99 0.73 -6.94 -0.34 1.90 0.00 0.00 0.00 -6.70 0.15 -0.34 -0.00 -13.73 -0.83 5.45 1.20 -0.04 0.00 0.00 0.00 0.97 -2.26 -1.65 
-0.5702 39.3983 0.1893 0.31 -0.80 -11.04 -0.72 -1.96 -0.23 0.00 9.78 0.00 0.26 -7.09 -0.91 1.68 -1.80 -0.50 0.00 9.69 -0.01 -2.17 -7.18 0.09 0.22 4.20 -0.25 0.00 0.00 0.00 5.67 -0.71 -2.19 0.00 -11.99 0.73 -6.92 -0.34 1.90 0.00 0.00 0.00 -6.71 0.15 -0.34 -0.00 -13.74 -0.83 5.48 1.20 -0.03 0.00 0.00 0.00 0.96 -2.26 -1.65 
-0.5599 39.3986 0.1890 0.30 -0.80 -11.06 -0.73 -1.96 -0.23 -0.00 9.78 0.00 0.27 -7.09 -0.88 1.67 -1.80 -0.51 -0.00 9.69 -0.01 -2.15 -7.18 0.12 0.21 4.20 -0.26 0.00 0.00 0.00 5.66 -0.71 -2.19 0.00 -11.99 0.73 -6.90 -0.34 1.91 0.00 0.00 0.00 -6.71 0.15 -0.34 0.00 -13.74 -0.83 5.50 1.20 -0.03 0.00 0.00 0.00 0.96 -2.26 -1.65 
-0.5599 39.3967 0.2184 0.29 -0.81 -11.09 -0.73 -1.91 -0.24 -0.00 9.81 0.01 0.28 -7.16 -0.85 1.66 -1.77 -0.52 0.00 9.73 -0.01 -2.14 -7.24 0.15 0.21 4.19 -0.26 0.00 0.00 0.00 5.66 -0.71 -2.19 0.00 -11.99 0.73 -6.89 -0.34 1.91 0.00 0.00 0.00 -6.71 0.15 -0.34 0.00 -13.75 -0.83 5.51 1.19 -0.02 0.00 0.00 0.00 0.96 -2.26 -1.65 
-0.5477 39.3959 0.2368 0.28 -0.82 -11.11 -0.75 -1.87 -0.24 -0.00 9.83 0.01 0.31 -7.20 -0.82 1.64 -1.74 -0.52 0.00 9.76 -0.01 -2.11 -7.28 0.17 0.21 4.18 -0.27 0.00 0.00 0.00 5.67 -0.71 -2.19 0.00 -11.99 0.73 -6.89 -0.32 1.91 0.00 0.00 0.00 -6.71 0.15 -0.34 0.00 -13.75 -0.83 5.51 1.20 -0.02 0.00 0.00 0.00 0.96 -2.26 -1.65 
-0.5495 39.3938 0.2655 0.27 -0.84 -11.13 -0.75 -1.83 -0.24 -0.00 9.88 0.01 0.31 -7.27 -0.80 1.64 -1.70 -0.52 0.00 9.80 -0.01 -2.11 -7.34 0.19 0.21 4.17 -0.27 0.00 0.00 0.00 5.67 -0.71 -2.19 0.00 -11.99 0.73 -6.89 -0.31 1.91 0.00 0.00 0.00 -6.71 0.14 -0.34 0.00 -13.75 -0.83 5.51 1.22 -0.02 0.00 0.00 0.00 0.96 -2.27 -1.64 
-0.5487 39.3928 0.2646 0.26 -0.87 -11.15 -0.74 -1.83 -0.24 0.00 9.94 0.01 0.30 -7.30 -0.78 1.64 -1.69 -0.52 0.00 9.83 -0.01 -2.10 -7.35 0.21 0.22 4.16 -0.27 0.00 0.00 0.00 5.67 -0.71 -2.19 0.00 -11.99 0.73 -6.90 -0.30 1.91 0.00 0.00 0.00 -6.71 0.14 -0.34 0.00 -13.75 -0.83 5.50 1.23 -0.02 0.00 0.00 0.00 0.96 -2.26 -1.64 
-0.5459 39.3922 0.2549 0.25 -0.90 -11.17 -0.73 -1.85 -0.24 -0.00 10.02 0.02 0.30 -7.33 -0.74 1.64 -1.68 -0.52 -0.00 9.85 -0.01 -2.10 -7.34 0.23 0.21 4.15 -0.20 0.00 0.00 0.00 5.66 -0.70 -2.11 0.00 -11.99 0.73 -6.91 -0.29 1.82 0.00 0.00 0.00 -6.71 0.14 -0.25 -0.00 -13.75 -0.83 5.50 1.23 -0.11 0.00 0.00 0.00 0.96 -2.18 -1.56 
-0.5320 39.3926 0.2363 0.24 -0.92 -11.20 -0.74 -1.87 -0.24 -0.00 10.06 0.01 0.31 -7.32 -0.70 1.63 -1.70 -0.52 -0.00 9.85 -0.01 -2.08 -7.31 0.26 0.20 4.16 -0.18 0.00 0.00 0.00 5.66 -0.59 -2.11 0.00 -11.94 0.72 -6.90 -0.39 1.84 0.00 0.00 0.00 -6.71 0.14 -0.26 0.00 -13.75 -0.83 5.51 1.22 -0.08 0.00 0.00 0.00 1.03 -2.13 -1.57 
-0.5188 39.3931 0.2202 0.23 -0.94 -11.22 -0.75 -1.89 -0.23 0.00 10.08 0.02 0.32 -7.30 -0.68 1.62 -1.72 -0.51 0.00 9.86 -0.00 -2.07 -7.28 0.26 0.19 4.17 -0.16 0.00 0.00 0.00 5.67 -0.31 -2.14 0.00 -11.84 0.71 -6.90 -0.57 1.84 0.00 0.00 0.00 -6.71 0.48 -0.24 0.00 -13.59 -0.82 5.51 0.95 -0.07 0.00 0.00 0.00 1.08 -2.11 -1.57 
-0.5141 39.3938 0.2148 0.23 -0.94 -11.23 -0.75 -1.88 -0.31 0.00 10.05 -0.02 0.33 -7.28 -0.55 1.62 -1.72 -0.51 -0.00 9.86 -0.00 -2.06 -7.27 0.26 0.19 4.18 -0.15 0.00 0.00 0.00 5.67 -0.10 -2.17 -0.00 -11.83 0.71 -6.90 -0.63 1.85 0.00 0.00 0.00 -6.71 0.71 -0.22 -0.00 -13.57 -0.82 5.50 0.87 -0.06 0.00 0.00 0.00 1.10 -2.10 -1.58 
-0.5565 39.3934 0.2084 0.23 -0.95 -11.23 -0.68 -1.86 -0.35 0.00 10.03 -0.02 0.26 -7.27 -0.51 1.69 -1.71 -0.50 0.00 9.85 0.00 -2.14 -7.26 0.24 0.19 4.19 -0.14 0.00 0.00 0.00 5.67 -0.01 -2.18 0.00 -11.87 0.72 -6.90 -0.57 1.86 0.00 0.00 0.00 -6.71 0.82 -0.22 -0.00 -13.61 -0.82 5.50 0.93 -0.06 0.00 0.00 0.00 1.12 -2.09 -1.58 
-0.5944 39.3932 0.1951 0.23 -0.96 -11.24 -0.61 -1.86 -0.37 -0.00 10.02 -0.00 0.18 -7.26 -0.49 1.75 -1.71 -0.50 0.00 9.83 -0.00 -2.20 -7.25 0.23 0.19 4.19 -0.13 0.00 0.00 0.00 5.67 0.04 -2.19 0.00 -11.91 0.72 -6.90 -0.50 1.86 0.00 0.00 0.00 -6.71 0.87 -0.22 0.00 -13.66 -0.82 5.50 1.00 -0.06 0.00 0.00 0.00 1.12 -2.10 -1.58 
-0.6099 39.3932 0.1893 0.23 -0.96 -11.24 -0.58 -1.85 -0.37 -0.00 10.02 0.00 0.15 -7.26 -0.49 1.78 -1.71 -0.50 0.00 9.83 -0.00 -2.23 -7.24 0.22 0.19 4.20 -0.13 0.00 0.00 0.00 5.67 0.05 -2.19 0.00 -11.95 0.72 -6.90 -0.45 1.87 0.00 0.00 0.00 -6.71 0.90 -0.22 0.00 -13.70 -0.83 5.50 1.06 -0.06 0.00 0.00 0.00 1.13 -2.10 -1.58 
-0.6099 39.3933 0.1893 0.23 -0.96 -11.24 -0.58 -1.85 -0.37 0.00 10.02 0.01 0.15 -7.26 -0.48 1.78 -1.70 -0.49 -0.00 9.82 -0.00 -2.23 -7.24 0.22 0.19 4.17 -0.13 0.00 0.00 0.00 5.67 -0.03 -2.18 -0.00 -11.98 0.73 -6.91 -0.33 1.87 0.00 0.00 0.00 -6.71 0.81 -0.23 0.00 -13.74 -0.83 5.50 1.19 -0.06 0.00 0.00 0.00 1.13 -2.21 -1.58 
-0.5981 39.3956 0.1303 0.23 -0.96 -11.24 -0.58 -1.95 -0.37 0.00 10.02 0.01 0.14 -7.16 -0.48 1.78 -1.80 -0.49 -0.00 9.81 -0.00 -2.23 -7.13 0.21 0.19 4.15 -0.12 0.00 0.00 0.00 5.67 -0.05 -2.18 0.00 -11.99 0.73 -6.91 -0.31 1.87 0.00 0.00 0.00 -6.71 0.80 -0.23 -0.00 -13.74 -0.83 5.56 1.21 -0.06 0.00 0.00 0.00 1.13 -2.22 -1.58 
-0.5871 39.3975 0.0752 0.23 -0.96 -11.25 -0.57 -2.04 -0.37 -0.00 10.03 0.01 0.14 -7.07 -0.47 1.78 -1.89 -0.49 -0.00 9.81 -0.00 -2.23 -7.04 0.21 0.19 4.15 -0.12 0.00 0.00 0.00 5.67 -0.05 -2.18 0.00 -11.98 0.73 -6.91 -0.32 1.87 0.00 0.00 0.00 -6.71 0.80 -0.23 0.00 -13.74 -0.83 5.59 1.20 -0.06 0.00 0.00 0.00 1.13 -2.21 -1.58 
-0.5923 39.3977 0.0628 0.23 -0.96 -11.24 -0.56 -2.06 -0.37 -0.00 10.03 0.02 0.12 -7.05 -0.48 1.79 -1.91 -0.48 -0.00 9.82 -0.00 -2.25 -7.02 0.19 0.19 4.15 -0.11 0.00 0.00 0.00 5.67 -0.04 -2.18 0.00 -11.98 0.73 -6.91 -0.34 1.86 0.00 0.00 0.00 -6.71 0.80 -0.22 -0.00 -13.74 -0.83 5.61 1.19 -0.07 0.00 0.00 0.00 1.13 -2.20 -1.57 
-0.5895 39.3998 0.0081 0.24 -0.96 -11.22 -0.55 -2.15 -0.35 -0.00 10.01 0.02 0.10 -6.96 -0.50 1.80 -1.99 -0.47 0.00 9.79 0.00 -2.26 -6.92 0.15 0.20 4.11 -0.10 0.00 0.00 0.00 5.67 -0.13 -2.16 0.00 -12.00 0.73 -6.93 -0.26 1.85 0.00 0.00 0.00 -6.71 0.71 -0.23 -0.00 -13.76 -0.83 5.61 1.26 -0.08 0.00 0.00 0.00 1.13 -2.31 -1.57 
